<mxfile host="app.diagrams.net" modified="2021-05-15T16:31:22.741Z" agent="5.0 (Windows NT 10.0; Win64; x64) AppleWebKit/537.36 (KHTML, like Gecko) Chrome/90.0.4430.93 Safari/537.36 Edg/90.0.818.56" etag="qS1WRrNpGekRbOqDSYKJ" version="14.6.13" type="github" pages="6">
  <diagram id="uCncCyfIx9DwKSl4QFYw" name="login">
    <mxGraphModel dx="1021" dy="529" grid="1" gridSize="10" guides="1" tooltips="1" connect="1" arrows="1" fold="1" page="1" pageScale="1" pageWidth="1250" pageHeight="500" background="#ffffff" backgroundImage="{&quot;src&quot;:&quot;https://raw.githubusercontent.com/rgarciac-R/ADP_Peru/main/login.png&quot;,&quot;width&quot;:&quot;1262&quot;,&quot;height&quot;:&quot;607&quot;}" math="0" shadow="0">
      <root>
        <mxCell id="0" />
        <mxCell id="1" parent="0" />
      </root>
    </mxGraphModel>
  </diagram>
  <diagram id="1ShVuRupQQOr1Sga7X0q" name="menu">
    <mxGraphModel dx="1240" dy="643" grid="1" gridSize="10" guides="1" tooltips="1" connect="1" arrows="1" fold="1" page="1" pageScale="1" pageWidth="1250" pageHeight="500" backgroundImage="{&quot;src&quot;:&quot;https://raw.githubusercontent.com/verigc/ADP_Peru/afa1b22a6ac93d82d516d9d5f5193bb51c2216af/2.png&quot;,&quot;width&quot;:&quot;1266&quot;,&quot;height&quot;:&quot;546&quot;}" math="0" shadow="0">
      <root>
        <mxCell id="enIl-rSkKJyD5SPD39lE-0" />
        <mxCell id="enIl-rSkKJyD5SPD39lE-1" parent="enIl-rSkKJyD5SPD39lE-0" />
        <mxCell id="wGysHQ_6aFOFTTPGk6Df-0" value="1" style="text;html=1;strokeColor=none;fillColor=none;align=center;verticalAlign=middle;whiteSpace=wrap;rounded=0;fontSize=12;fontColor=#FF0000;" vertex="1" parent="enIl-rSkKJyD5SPD39lE-1">
          <mxGeometry x="10" y="150" width="40" height="20" as="geometry" />
        </mxCell>
        <mxCell id="wGysHQ_6aFOFTTPGk6Df-1" value="2" style="text;html=1;strokeColor=none;fillColor=none;align=center;verticalAlign=middle;whiteSpace=wrap;rounded=0;fontSize=12;fontColor=#FF0000;" vertex="1" parent="enIl-rSkKJyD5SPD39lE-1">
          <mxGeometry x="10" y="180" width="40" height="20" as="geometry" />
        </mxCell>
        <mxCell id="wGysHQ_6aFOFTTPGk6Df-2" value="3" style="text;html=1;strokeColor=none;fillColor=none;align=center;verticalAlign=middle;whiteSpace=wrap;rounded=0;fontSize=12;fontColor=#FF0000;" vertex="1" parent="enIl-rSkKJyD5SPD39lE-1">
          <mxGeometry x="10" y="220" width="40" height="20" as="geometry" />
        </mxCell>
        <mxCell id="wGysHQ_6aFOFTTPGk6Df-3" value="4" style="text;html=1;strokeColor=none;fillColor=none;align=center;verticalAlign=middle;whiteSpace=wrap;rounded=0;fontSize=12;fontColor=#FF0000;" vertex="1" parent="enIl-rSkKJyD5SPD39lE-1">
          <mxGeometry x="10" y="250" width="40" height="20" as="geometry" />
        </mxCell>
        <mxCell id="wGysHQ_6aFOFTTPGk6Df-4" value="5" style="text;html=1;strokeColor=none;fillColor=none;align=center;verticalAlign=middle;whiteSpace=wrap;rounded=0;fontSize=12;fontColor=#FF0000;" vertex="1" parent="enIl-rSkKJyD5SPD39lE-1">
          <mxGeometry x="10" y="290" width="40" height="20" as="geometry" />
        </mxCell>
        <mxCell id="wGysHQ_6aFOFTTPGk6Df-5" value="6" style="text;html=1;strokeColor=none;fillColor=none;align=center;verticalAlign=middle;whiteSpace=wrap;rounded=0;fontSize=12;fontColor=#FF0000;" vertex="1" parent="enIl-rSkKJyD5SPD39lE-1">
          <mxGeometry x="10" y="330" width="40" height="20" as="geometry" />
        </mxCell>
        <mxCell id="wGysHQ_6aFOFTTPGk6Df-6" value="7" style="text;html=1;strokeColor=none;fillColor=none;align=center;verticalAlign=middle;whiteSpace=wrap;rounded=0;fontSize=12;fontColor=#FF0000;" vertex="1" parent="enIl-rSkKJyD5SPD39lE-1">
          <mxGeometry x="10" y="360" width="40" height="20" as="geometry" />
        </mxCell>
        <mxCell id="wGysHQ_6aFOFTTPGk6Df-7" value="8" style="text;html=1;strokeColor=none;fillColor=none;align=center;verticalAlign=middle;whiteSpace=wrap;rounded=0;fontSize=12;fontColor=#FF0000;" vertex="1" parent="enIl-rSkKJyD5SPD39lE-1">
          <mxGeometry x="10" y="400" width="40" height="20" as="geometry" />
        </mxCell>
        <mxCell id="wGysHQ_6aFOFTTPGk6Df-8" value="9" style="text;html=1;strokeColor=none;fillColor=none;align=center;verticalAlign=middle;whiteSpace=wrap;rounded=0;fontSize=12;fontColor=#FF0000;" vertex="1" parent="enIl-rSkKJyD5SPD39lE-1">
          <mxGeometry x="10" y="430" width="40" height="20" as="geometry" />
        </mxCell>
        <mxCell id="wGysHQ_6aFOFTTPGk6Df-9" value="10" style="text;html=1;strokeColor=none;fillColor=none;align=center;verticalAlign=middle;whiteSpace=wrap;rounded=0;fontSize=12;fontColor=#FF0000;" vertex="1" parent="enIl-rSkKJyD5SPD39lE-1">
          <mxGeometry x="10" y="470" width="40" height="20" as="geometry" />
        </mxCell>
      </root>
    </mxGraphModel>
  </diagram>
  <diagram id="CDSHU66JAVBk0zsRUzdP" name="1.1">
    <mxGraphModel dx="868" dy="450" grid="1" gridSize="10" guides="1" tooltips="1" connect="1" arrows="1" fold="1" page="1" pageScale="1" pageWidth="1250" pageHeight="500" backgroundImage="{&quot;src&quot;:&quot;https://raw.githubusercontent.com/rgarciac-R/ADP_Peru/main/1.1.png&quot;,&quot;width&quot;:&quot;1266&quot;,&quot;height&quot;:&quot;557&quot;}" math="0" shadow="0">
      <root>
        <mxCell id="DZH4g3mst_E04mnhFYGj-0" />
        <mxCell id="DZH4g3mst_E04mnhFYGj-1" parent="DZH4g3mst_E04mnhFYGj-0" />
      </root>
    </mxGraphModel>
  </diagram>
  <diagram id="0HWjEuoRO0XbvDKmUfpL" name="1.2">
    <mxGraphModel dx="868" dy="-50" grid="0" gridSize="10" guides="1" tooltips="1" connect="1" arrows="1" fold="1" page="1" pageScale="1" pageWidth="1250" pageHeight="500" background="#FFFFFF" backgroundImage="{&quot;src&quot;:&quot;https://raw.githubusercontent.com/rgarciac-R/ADP_Peru/main/1.2.png&quot;,&quot;width&quot;:&quot;1266&quot;,&quot;height&quot;:&quot;581&quot;}" math="0" shadow="1">
      <root>
        <mxCell id="Ge1gNc6BNM3B04yZrifj-0" />
        <mxCell id="Ge1gNc6BNM3B04yZrifj-1" parent="Ge1gNc6BNM3B04yZrifj-0" />
        <mxCell id="1x6QuaMu0htorhWoD5cA-0" value="" style="html=1;shadow=0;dashed=0;shape=mxgraph.bootstrap.rrect;rSize=5;strokeColor=#DFDFDF;html=1;whiteSpace=wrap;fillColor=#FFFFFF;fontColor=#000000;fontSize=12;" parent="Ge1gNc6BNM3B04yZrifj-1" vertex="1">
          <mxGeometry x="860" y="520" width="360" height="90" as="geometry" />
        </mxCell>
        <mxCell id="1x6QuaMu0htorhWoD5cA-1" value="Todo Medio de Pago" style="html=1;shadow=0;dashed=0;shape=mxgraph.bootstrap.topButton;rSize=5;strokeColor=none;fillColor=#0085FC;fontColor=#ffffff;perimeter=none;whiteSpace=wrap;resizeWidth=1;align=left;spacing=10;" parent="1x6QuaMu0htorhWoD5cA-0" vertex="1">
          <mxGeometry width="360" height="30" relative="1" as="geometry" />
        </mxCell>
        <mxCell id="1x6QuaMu0htorhWoD5cA-2" value="Tarjeta Ripley" style="strokeColor=inherit;fillColor=inherit;gradientColor=inherit;fontColor=inherit;html=1;shadow=0;dashed=0;perimeter=none;whiteSpace=wrap;resizeWidth=1;align=left;spacing=10;" parent="1x6QuaMu0htorhWoD5cA-0" vertex="1">
          <mxGeometry width="360" height="30" relative="1" as="geometry">
            <mxPoint y="30" as="offset" />
          </mxGeometry>
        </mxCell>
        <mxCell id="1x6QuaMu0htorhWoD5cA-3" value="Ambos" style="strokeColor=inherit;fillColor=inherit;gradientColor=inherit;fontColor=inherit;html=1;shadow=0;dashed=0;perimeter=none;whiteSpace=wrap;resizeWidth=1;align=left;spacing=10;" parent="1x6QuaMu0htorhWoD5cA-0" vertex="1">
          <mxGeometry width="360" height="30" relative="1" as="geometry">
            <mxPoint y="60" as="offset" />
          </mxGeometry>
        </mxCell>
        <mxCell id="1x6QuaMu0htorhWoD5cA-8" value="Descripcion PMT" style="fillColor=none;strokeColor=none;html=1;fontSize=11;fontStyle=0;align=left;fontColor=#596780;fontStyle=1;fontSize=11" parent="Ge1gNc6BNM3B04yZrifj-1" vertex="1">
          <mxGeometry x="110" y="570" width="240" height="20" as="geometry" />
        </mxCell>
        <mxCell id="1x6QuaMu0htorhWoD5cA-9" value="eg. ATP, VOSS etc" style="rounded=1;arcSize=9;fillColor=#F7F8F9;align=left;spacingLeft=5;strokeColor=#DEE1E6;html=1;strokeWidth=2;fontColor=#596780;fontSize=12" parent="Ge1gNc6BNM3B04yZrifj-1" vertex="1">
          <mxGeometry x="110" y="595" width="290" height="33" as="geometry" />
        </mxCell>
      </root>
    </mxGraphModel>
  </diagram>
  <diagram id="g-wj7W9Ka6uigOFeBTqj" name="1.3">
    <mxGraphModel dx="868" dy="450" grid="0" gridSize="10" guides="1" tooltips="1" connect="1" arrows="1" fold="1" page="1" pageScale="1" pageWidth="1250" pageHeight="500" backgroundImage="{&quot;src&quot;:&quot;https://raw.githubusercontent.com/rgarciac-R/ADP_Peru/main/1.3.png&quot;,&quot;width&quot;:&quot;1266&quot;,&quot;height&quot;:&quot;555&quot;}" math="0" shadow="0">
      <root>
        <mxCell id="Ee3h50NpJUBD4BHoQdAb-0" />
        <mxCell id="Ee3h50NpJUBD4BHoQdAb-1" parent="Ee3h50NpJUBD4BHoQdAb-0" />
        <mxCell id="Ee3h50NpJUBD4BHoQdAb-2" value="Tipo de exclusion" style="text;html=1;strokeColor=none;fillColor=none;align=center;verticalAlign=middle;whiteSpace=wrap;rounded=0;" parent="Ee3h50NpJUBD4BHoQdAb-1" vertex="1">
          <mxGeometry x="320" y="240" width="100" height="20" as="geometry" />
        </mxCell>
        <mxCell id="tj6QI5-mPIiIMqRowOm5-0" value="" style="html=1;shadow=0;dashed=0;shape=mxgraph.bootstrap.rrect;rSize=5;strokeColor=#DFDFDF;html=1;whiteSpace=wrap;fillColor=#FFFFFF;fontColor=#000000;fontSize=10;" parent="Ee3h50NpJUBD4BHoQdAb-1" vertex="1">
          <mxGeometry x="423" y="235" width="200" height="121" as="geometry" />
        </mxCell>
        <mxCell id="tj6QI5-mPIiIMqRowOm5-1" value="Excluye Jerarquia" style="html=1;shadow=0;dashed=0;shape=mxgraph.bootstrap.topButton;rSize=5;strokeColor=none;fillColor=#0085FC;fontColor=#ffffff;perimeter=none;whiteSpace=wrap;resizeWidth=1;align=left;spacing=10;" parent="tj6QI5-mPIiIMqRowOm5-0" vertex="1">
          <mxGeometry width="200" height="30" relative="1" as="geometry" />
        </mxCell>
        <mxCell id="tj6QI5-mPIiIMqRowOm5-2" value="Excluye Temporada" style="strokeColor=inherit;fillColor=inherit;gradientColor=inherit;fontColor=inherit;html=1;shadow=0;dashed=0;perimeter=none;whiteSpace=wrap;resizeWidth=1;align=left;spacing=10;" parent="tj6QI5-mPIiIMqRowOm5-0" vertex="1">
          <mxGeometry width="200" height="30" relative="1" as="geometry">
            <mxPoint y="30" as="offset" />
          </mxGeometry>
        </mxCell>
        <mxCell id="tj6QI5-mPIiIMqRowOm5-3" value="Excluye Marca" style="strokeColor=inherit;fillColor=inherit;gradientColor=inherit;fontColor=inherit;html=1;shadow=0;dashed=0;perimeter=none;whiteSpace=wrap;resizeWidth=1;align=left;spacing=10;" parent="tj6QI5-mPIiIMqRowOm5-0" vertex="1">
          <mxGeometry width="200" height="30" relative="1" as="geometry">
            <mxPoint y="60" as="offset" />
          </mxGeometry>
        </mxCell>
        <mxCell id="tj6QI5-mPIiIMqRowOm5-4" value="Excluye lista de SKU" style="strokeColor=inherit;fillColor=inherit;gradientColor=inherit;fontColor=inherit;html=1;shadow=0;dashed=0;perimeter=none;whiteSpace=wrap;resizeWidth=1;align=left;spacing=10;" parent="tj6QI5-mPIiIMqRowOm5-0" vertex="1">
          <mxGeometry width="200" height="30" relative="1" as="geometry">
            <mxPoint y="90" as="offset" />
          </mxGeometry>
        </mxCell>
      </root>
    </mxGraphModel>
  </diagram>
  <diagram id="ZTHIPoly2aaWKYPkP9Q8" name="1.4">
    <mxGraphModel dx="1240" dy="643" grid="0" gridSize="10" guides="1" tooltips="1" connect="1" arrows="1" fold="1" page="1" pageScale="1" pageWidth="1250" pageHeight="500" background="#ffffff" backgroundImage="{&quot;src&quot;:&quot;https://raw.githubusercontent.com/rgarciac-R/ADP_Peru/main/1.4.png&quot;,&quot;width&quot;:&quot;1266&quot;,&quot;height&quot;:&quot;595&quot;}" math="0" shadow="0">
      <root>
        <mxCell id="sIcNJV-F81fLZsfHhvlz-0" />
        <mxCell id="sIcNJV-F81fLZsfHhvlz-1" parent="sIcNJV-F81fLZsfHhvlz-0" />
        <mxCell id="sIcNJV-F81fLZsfHhvlz-2" value="" style="html=1;shadow=0;dashed=0;shape=mxgraph.bootstrap.rrect;rSize=5;strokeColor=#DFDFDF;html=1;whiteSpace=wrap;fillColor=#FFFFFF;fontColor=#000000;fontSize=10;" parent="sIcNJV-F81fLZsfHhvlz-1" vertex="1">
          <mxGeometry x="180" y="70" width="130" height="60" as="geometry" />
        </mxCell>
        <mxCell id="sIcNJV-F81fLZsfHhvlz-3" value="En Soles (S/.)" style="html=1;shadow=0;dashed=0;shape=mxgraph.bootstrap.topButton;rSize=5;strokeColor=none;perimeter=none;whiteSpace=wrap;resizeWidth=1;align=left;spacing=10;fontSize=10;labelBackgroundColor=none;fillColor=#E3FBFC;" parent="sIcNJV-F81fLZsfHhvlz-2" vertex="1">
          <mxGeometry width="130" height="30" relative="1" as="geometry" />
        </mxCell>
        <mxCell id="sIcNJV-F81fLZsfHhvlz-4" value="En Procentaje (%)" style="strokeColor=inherit;fillColor=inherit;gradientColor=inherit;fontColor=inherit;html=1;shadow=0;dashed=0;perimeter=none;whiteSpace=wrap;resizeWidth=1;align=left;spacing=10;fontSize=10;" parent="sIcNJV-F81fLZsfHhvlz-2" vertex="1">
          <mxGeometry width="130" height="30" relative="1" as="geometry">
            <mxPoint y="30" as="offset" />
          </mxGeometry>
        </mxCell>
        <mxCell id="ppqwTFFfwLuVINl4PzA6-0" value="Tipo de descuento:" style="fillColor=none;strokeColor=none;html=1;fontSize=11;fontStyle=0;align=left;fontColor=#596780;fontStyle=1;fontSize=11" parent="sIcNJV-F81fLZsfHhvlz-1" vertex="1">
          <mxGeometry x="330" y="70" width="110" height="20" as="geometry" />
        </mxCell>
        <mxCell id="ppqwTFFfwLuVINl4PzA6-5" value="" style="html=1;shadow=0;dashed=0;shape=mxgraph.bootstrap.rrect;rSize=5;strokeColor=#DFDFDF;html=1;whiteSpace=wrap;fillColor=#FFFFFF;fontColor=#000000;fontSize=10;" parent="sIcNJV-F81fLZsfHhvlz-1" vertex="1">
          <mxGeometry x="440" y="70" width="130" height="210" as="geometry" />
        </mxCell>
        <mxCell id="ppqwTFFfwLuVINl4PzA6-6" value="% Dscto Precio Blanco" style="html=1;shadow=0;dashed=0;shape=mxgraph.bootstrap.topButton;rSize=5;strokeColor=none;perimeter=none;whiteSpace=wrap;resizeWidth=1;align=left;spacing=10;fontSize=10;labelBackgroundColor=none;fillColor=#E3FBFC;" parent="ppqwTFFfwLuVINl4PzA6-5" vertex="1">
          <mxGeometry width="130" height="30" relative="1" as="geometry" />
        </mxCell>
        <mxCell id="ppqwTFFfwLuVINl4PzA6-7" value="2da a Precio Fijo" style="strokeColor=inherit;fillColor=inherit;gradientColor=inherit;fontColor=inherit;html=1;shadow=0;dashed=0;perimeter=none;whiteSpace=wrap;resizeWidth=1;align=left;spacing=10;fontSize=10;" parent="ppqwTFFfwLuVINl4PzA6-5" vertex="1">
          <mxGeometry width="130" height="30" relative="1" as="geometry">
            <mxPoint y="30" as="offset" />
          </mxGeometry>
        </mxCell>
        <mxCell id="ppqwTFFfwLuVINl4PzA6-9" value="% Dscto Precio Vigente" style="strokeColor=inherit;fillColor=inherit;gradientColor=inherit;fontColor=inherit;html=1;shadow=0;dashed=0;perimeter=none;whiteSpace=wrap;resizeWidth=1;align=left;spacing=10;fontSize=10;" parent="ppqwTFFfwLuVINl4PzA6-5" vertex="1">
          <mxGeometry y="60.00272727272728" width="130" height="28.636363636363633" as="geometry" />
        </mxCell>
        <mxCell id="ppqwTFFfwLuVINl4PzA6-10" value="2x1" style="strokeColor=inherit;fillColor=inherit;gradientColor=inherit;fontColor=inherit;html=1;shadow=0;dashed=0;perimeter=none;whiteSpace=wrap;resizeWidth=1;align=left;spacing=10;fontSize=10;" parent="ppqwTFFfwLuVINl4PzA6-5" vertex="1">
          <mxGeometry y="88.6390909090909" width="130" height="28.636363636363633" as="geometry" />
        </mxCell>
        <mxCell id="ppqwTFFfwLuVINl4PzA6-11" value="3x2" style="strokeColor=inherit;fillColor=inherit;gradientColor=inherit;fontColor=inherit;html=1;shadow=0;dashed=0;perimeter=none;whiteSpace=wrap;resizeWidth=1;align=left;spacing=10;fontSize=10;" parent="ppqwTFFfwLuVINl4PzA6-5" vertex="1">
          <mxGeometry y="117.27545454545455" width="130" height="28.636363636363633" as="geometry" />
        </mxCell>
        <mxCell id="ppqwTFFfwLuVINl4PzA6-12" value="% Dscto Segunda Prenda" style="strokeColor=inherit;fillColor=inherit;gradientColor=inherit;fontColor=inherit;html=1;shadow=0;dashed=0;perimeter=none;whiteSpace=wrap;resizeWidth=1;align=left;spacing=10;fontSize=10;" parent="ppqwTFFfwLuVINl4PzA6-5" vertex="1">
          <mxGeometry y="145.9118181818182" width="130" height="28.636363636363633" as="geometry" />
        </mxCell>
        <mxCell id="ppqwTFFfwLuVINl4PzA6-13" value="% Dscto Precio Blanco" style="strokeColor=inherit;fillColor=inherit;gradientColor=inherit;fontColor=inherit;html=1;shadow=0;dashed=0;perimeter=none;whiteSpace=wrap;resizeWidth=1;align=left;spacing=10;fontSize=10;" parent="ppqwTFFfwLuVINl4PzA6-5" vertex="1">
          <mxGeometry y="174.54818181818183" width="130" height="28.636363636363633" as="geometry" />
        </mxCell>
      </root>
    </mxGraphModel>
  </diagram>
</mxfile>
